<?xml version="1.0" encoding="UTF-8"?>
<svg xmlns="http://www.w3.org/2000/svg" xmlns:xlink="http://www.w3.org/1999/xlink" width="35px" height="35px" viewBox="0 0 35 35" version="1.1">
<g id="surface1">
<path style=" stroke:none;fill-rule:nonzero;fill:rgb(0%,0%,0%);fill-opacity:1;" d="M 10.441406 1.390625 C -0.996094 6.464844 -3.480469 21.476562 5.566406 30.027344 C 14.417969 38.28125 28.636719 35.296875 33.410156 24.160156 C 39.472656 10.042969 24.460938 -4.871094 10.441406 1.390625 Z M 15.910156 10.9375 L 18.394531 14.914062 L 22.074219 10.640625 C 24.0625 8.351562 25.753906 6.859375 25.851562 7.359375 C 25.851562 7.753906 24.558594 9.746094 22.871094 11.632812 C 21.179688 13.421875 19.886719 15.511719 19.886719 16.109375 C 19.886719 16.605469 21.476562 19.289062 23.367188 21.875 C 25.253906 24.460938 26.847656 26.847656 26.847656 27.246094 C 26.847656 27.542969 25.554688 27.839844 24.0625 27.839844 C 22.171875 27.839844 20.78125 27.046875 19.589844 25.058594 C 18.691406 23.566406 17.597656 21.777344 17.101562 21.078125 C 16.40625 19.984375 15.214844 20.683594 12.03125 24.0625 C 9.644531 26.347656 8.253906 27.441406 8.75 26.347656 C 9.347656 25.253906 10.9375 23.265625 12.328125 21.972656 C 13.722656 20.582031 14.914062 19.089844 14.914062 18.59375 C 14.914062 18.097656 13.324219 15.511719 11.433594 12.925781 C 9.546875 10.339844 7.953125 7.953125 7.953125 7.558594 C 7.953125 7.257812 9.148438 6.960938 10.738281 6.960938 C 12.828125 6.960938 14.019531 7.855469 15.910156 10.9375 Z M 15.910156 10.9375 "/>
<path style=" stroke:none;fill-rule:nonzero;fill:rgb(0%,0%,0%);fill-opacity:1;" d="M 15.710938 17.101562 C 18.992188 21.578125 22.371094 25.554688 23.265625 25.652344 C 24.359375 25.953125 22.96875 23.167969 19.089844 17.699219 C 15.808594 13.222656 12.429688 9.246094 11.535156 9.148438 C 10.441406 8.847656 11.832031 11.632812 15.710938 17.101562 Z M 15.710938 17.101562 "/>
</g>
</svg>
