<svg xmlns="http://www.w3.org/2000/svg" width="35" height="35" viewBox="0 0 35 35">
  <path id="ico-rss" d="M-29.217-9.929a17.5,17.5,0,0,0-17.5,17.5,17.5,17.5,0,0,0,17.5,17.5,17.5,17.5,0,0,0,17.5-17.5A17.5,17.5,0,0,0-29.217-9.929Zm-5.33,25.1a2.27,2.27,0,0,1-2.27-2.27,2.271,2.271,0,0,1,2.27-2.271A2.27,2.27,0,0,1-32.278,12.9,2.269,2.269,0,0,1-34.547,15.171Zm5.824,0a8.093,8.093,0,0,0-8.093-8.094V4.708A10.463,10.463,0,0,1-26.355,15.171Zm4.737,0A12.831,12.831,0,0,0-36.816,2.338V-.029a15.2,15.2,0,0,1,15.2,15.2Z" transform="translate(46.717 9.929)" fill="#273656"/>
</svg>
