<svg xmlns="http://www.w3.org/2000/svg" width="15.141" height="15.143" viewBox="0 0 15.141 15.143"><defs><style>.a{fill:#2b4087;}</style></defs><path class="a" d="M600.545,1041.13a3.552,3.552,0,1,1,0,7.1Zm-.3-3.778v1.792a.311.311,0,0,0,.605,0v-1.792a.31.31,0,0,0-.605,0Zm-5.052,1.978a.278.278,0,0,0-.044.383l1.268,1.268a.312.312,0,0,0,.428-.43l-1.266-1.267a.21.21,0,0,0-.151-.059A.337.337,0,0,0,595.191,1039.33Zm10.325-.046-1.268,1.267a.312.312,0,0,0,.43.43l1.266-1.268a.274.274,0,0,0-.045-.383.331.331,0,0,0-.233-.1A.207.207,0,0,0,605.516,1039.284Zm-12.541,5.4a.276.276,0,0,0,.24.3h1.793a.312.312,0,0,0,0-.606h-1.793A.277.277,0,0,0,592.975,1044.682Zm12.87,0a.277.277,0,0,0,.24.3h1.793a.312.312,0,0,0,0-.606h-1.793A.278.278,0,0,0,605.845,1044.682Zm-9.842,0a4.543,4.543,0,1,0,4.542-4.542A4.545,4.545,0,0,0,596,1044.682Zm.412,3.7-1.268,1.269a.313.313,0,0,0,.43.43l1.266-1.268a.275.275,0,0,0-.045-.383.334.334,0,0,0-.233-.106A.215.215,0,0,0,596.415,1048.384Zm7.877.048a.278.278,0,0,0-.044.383l1.268,1.268a.312.312,0,0,0,.428-.43l-1.266-1.269a.217.217,0,0,0-.151-.058A.338.338,0,0,0,604.292,1048.432Zm-4.049,1.789v1.794a.311.311,0,0,0,.605,0v-1.794a.311.311,0,0,0-.605,0Z" transform="translate(-592.975 -1037.11)"/></svg>