<svg xmlns="http://www.w3.org/2000/svg" width="124.098" height="25" viewBox="0 0 124.098 25"><defs><style>.a{fill:#fff;}.b{fill:#fbd015;}.c{fill:#05569e;}.d{fill:#d11f3e;}</style></defs><g transform="translate(-573 -320.162)"><path class="a" d="M585.463,333.351a.68.68,0,0,0,.4-.143.544.544,0,0,0,.189.028.619.619,0,0,0,.535-.371.5.5,0,0,0,.3-.051.569.569,0,0,0,.258-.617c.012-.007.021-.016.033-.025a.5.5,0,0,0-.006-.7.092.092,0,0,0-.018-.019.246.246,0,0,0,.107-.2c0-.144-.174-.259-.333-.259s-.332.115-.332.259v0a.986.986,0,0,0-.156.085.378.378,0,0,0-.115.27.424.424,0,0,0-.074.036.4.4,0,0,0-.1.076.467.467,0,0,0-.139-.017.54.54,0,0,0-.2.042.647.647,0,0,0-.39-.118.87.87,0,0,0,.034,1.723Z" transform="translate(-0.957 -0.886)"/><path class="a" d="M580.225,332.173a.309.309,0,0,0,.033.025.57.57,0,0,0,.257.617.5.5,0,0,0,.3.051.619.619,0,0,0,.535.371.547.547,0,0,0,.189-.028.674.674,0,0,0,.4.143.87.87,0,0,0,.032-1.723.659.659,0,0,0-.39.117.552.552,0,0,0-.2-.041.5.5,0,0,0-.14.016.455.455,0,0,0-.1-.075.437.437,0,0,0-.086-.036.36.36,0,0,0-.1-.27.945.945,0,0,0-.17-.085v0a.3.3,0,0,0-.319-.259.29.29,0,0,0-.3.259.24.24,0,0,0,.1.2l-.021.019A.5.5,0,0,0,580.225,332.173Z" transform="translate(-0.58 -0.886)"/><path class="a" d="M583.763,336.872l.353-.533-.067-.253.277.039c.018.115.093.247.2.263a1.344,1.344,0,0,0,.3,0l.1-.122a2.245,2.245,0,0,0-.29-.228,5.409,5.409,0,0,0-.261-1.5c-.092-.265-.215-.273-.45-.242a4.135,4.135,0,0,0-.871.415l-.044.369.218.025s-.125.414-.168.563-.006.142.074.2a2.017,2.017,0,0,0,.383.128l-.086.384Z" transform="translate(-0.819 -1.155)"/><path class="a" d="M583.691,331.911c-.17,0-.308-.3-.308-.678s.138-.675.308-.675.308.3.308.675S583.86,331.911,583.691,331.911Zm-.763-.042c.127.731.6.8.782.792a2.568,2.568,0,0,1-.047.462l.23.158a4.061,4.061,0,0,0,0-.743c.556-.081.669-.907.669-.907a1.052,1.052,0,0,0-.68.814,1.454,1.454,0,0,0-.146-.523.7.7,0,0,0,.4-1.213l.116-.217-.245.05-.1-.188-.18.145-.108-.145-.116.167-.217-.122.061.2a.7.7,0,0,0,.195,1.323,1.256,1.256,0,0,1,.164.594A1.615,1.615,0,0,0,582.928,331.869Z" transform="translate(-0.812 -0.834)"/><path class="a" d="M584.348,338.51a.568.568,0,0,1,0-.452H583.5a.562.562,0,0,0,0,.452Z" transform="translate(-0.855 -1.464)"/><path class="a" d="M583.5,339.7a.992.992,0,0,0,0,.606h.846a1,1,0,0,1,0-.606Z" transform="translate(-0.855 -1.598)"/><path class="a" d="M584.489,339l.189-.3h-1.294l-.142-.152h-.54l.067.152h.13l.138.3Z" transform="translate(-0.794 -1.504)"/><path class="a" d="M584.506,340.515h-1.1l-.078-.152h-.284l.087.172.232.128h1.116l.225-.13.031-.17h-.182Z" transform="translate(-0.822 -1.652)"/><path class="a" d="M582.917,340.02a9.618,9.618,0,0,1-3.29-3.723H586.2A9.592,9.592,0,0,1,582.917,340.02Zm-4.241-6.946h8.481a9.166,9.166,0,0,1-.822,2.984H579.5A9.123,9.123,0,0,1,578.675,333.074Zm-.118-3.807c.067-.012.133-.015.208-.033a2.666,2.666,0,0,0,1.942.691,3.815,3.815,0,0,1,4.415,0,2.668,2.668,0,0,0,1.941-.685c.078.018.143.013.209.025a16.971,16.971,0,0,1-.117,3.553h-8.481A17.019,17.019,0,0,1,578.558,329.267Zm2.456-.384a2.659,2.659,0,0,1-.353.73,3.1,3.1,0,0,1-1.6-.447l.186-.062a3.794,3.794,0,0,1,1.587-.231C580.9,328.874,580.956,328.88,581.014,328.883Zm-3.16-.616c.432-.506.467-.679.4-.9a2.365,2.365,0,0,0-.462-.7c-.122-.123-.295-.209-.88-.028a.718.718,0,0,1-.857-.251.289.289,0,0,0,.062,0,.212.212,0,0,1,.142.016.246.246,0,0,0,.219-.051c.065-.05.047-.014.083-.014s.069-.033.18-.049a.641.641,0,0,0,.256-.135c.063.017.159-.091.214-.152s.039.029.075.006.047.019.1.027a.861.861,0,0,0,.23-.065c.1.029.278-.163.278-.163.085.008.169-.1.169-.1.129.047.21-.036.282-.111a.29.29,0,0,1,.169-.112c.069-.018.075-.054.147-.127s.064-.017.108-.007.084-.042.108.007.022.08.108.015.039.228.043.315.055.15.181.172.232-.122.232-.122a.236.236,0,0,0,.244-.091c.029-.062.048-.058.069-.018s.127.022.173-.057.074-.012.115.032a.069.069,0,0,0,.116,0c.031-.04.051.018.112-.011s.094,0,.162.033.022.09.026.137.069.079.107.152.045.055.116.09a1.7,1.7,0,0,1,.253.184.137.137,0,0,0,.214-.035c.015.063.036.169.067.169s.057-.082.08-.132c.032.044.068.033.1.046a1.025,1.025,0,0,0,.039.993h0c.015,0,.027-.018.038-.049a1.361,1.361,0,0,1,.015.361,1.671,1.671,0,0,0-.238.488,2.858,2.858,0,0,0-2.094.031A4,4,0,0,1,577.854,328.267Zm3.636-1.964a1.115,1.115,0,0,0,.092.31c-.014.025-.027.049-.039.075a.986.986,0,0,0-.138-.394A.194.194,0,0,0,581.49,326.3Zm.142-2.313.005-.013a1.107,1.107,0,0,0,.656.474.3.3,0,0,0-.081.059.855.855,0,0,1-.393-.108c-.054-.061-.079-.116-.123-.108s0-.065-.04-.093S581.54,324.174,581.632,323.99Zm.694.054a.724.724,0,0,1,.293.28c.015.04.028.079.038.116a.675.675,0,0,0-.271-.019,1.26,1.26,0,0,0-.369-.395A.462.462,0,0,1,582.326,324.044Zm1.027,3.944.014,0a.663.663,0,0,0,.3.037,4.147,4.147,0,0,1,.326.295,3.25,3.25,0,0,0-.574.386,2.183,2.183,0,0,1-.089-.569C583.339,328.086,583.348,328.034,583.354,327.988Zm3.417,1.178a3.142,3.142,0,0,1-1.709.45,3.486,3.486,0,0,1-1.491-.313,3.036,3.036,0,0,1,1.427-.431,3.8,3.8,0,0,1,1.588.231C586.639,329.123,586.7,329.143,586.77,329.166Zm-2.971-2.442c.063-.278.112-.512.17-.473a.161.161,0,0,0,.195,0c.037-.049.048-.054.076,0s.2.133.318-.064.083-.1.116-.022.122.107.223.028a1.7,1.7,0,0,1,.253-.184c.072-.035.075-.017.115-.09s.1-.106.108-.152-.043-.1.026-.137.1-.062.163-.033.078-.029.111.011a.069.069,0,0,0,.116,0c.039-.044.069-.111.116-.032s.151.1.172.057.04-.043.07.018a.236.236,0,0,0,.244.091s.1.144.231.122.177-.086.18-.172-.043-.379.043-.315.084.036.108-.015.065,0,.108-.007.036-.065.108.007.079.108.148.127a.3.3,0,0,1,.169.112c.073.075.152.158.281.111,0,0,.083.108.171.1,0,0,.176.193.277.163a.852.852,0,0,0,.231.065c.058-.007.069-.046.106-.027s.021-.068.074-.006.152.17.213.152a.65.65,0,0,0,.256.135c.112.016.144.049.18.049s.018-.036.084.014a.247.247,0,0,0,.22.051.209.209,0,0,1,.141-.016.345.345,0,0,0,.067,0,.72.72,0,0,1-.858.252c-.583-.181-.758-.095-.88.028a2.4,2.4,0,0,0-.463.7c-.07.223-.034.4.4.9a3.887,3.887,0,0,1-1.3-.2,2.839,2.839,0,0,0-2.121-.014c-.12.054-.231.1-.335.156-.077-.078-.269-.276-.34-.365a2.147,2.147,0,0,0,.043-.365.478.478,0,0,0-.064-.3A.482.482,0,0,1,583.8,326.724Zm9.039,2.141-1.579.6-.152.426-.354.23a12.289,12.289,0,0,0-.193-1.833l.57-.006L592.181,327l-1.529.656-.138.446-1.5,1.138a11.469,11.469,0,0,1,.062,1.971l.332-.223c.143,6.248-2.713,8.6-2.713,8.6a2.58,2.58,0,0,1-.908-.578,11.361,11.361,0,0,0,2.481-7.25l-.275.181a14,14,0,0,0,.039-1.955l-.48.365c-.011-.429-.036-.786-.065-1.035a1.261,1.261,0,0,0,.836-.2,1.8,1.8,0,0,0,.44-.982c.043-.238-.007-.318-.151-.411a5.143,5.143,0,0,1-.57-.49s.248-.107.829.166c.627.3,1.1.151,1.638-.642l-.642.094.056-.443a.222.222,0,0,1,.034.017,2.194,2.194,0,0,0,.536.2c.145.029.14.008.231.062s.168.076.216.053c0,0,.359.2.5,0a1.957,1.957,0,0,0,.208.108,1.134,1.134,0,0,0,.34.09.559.559,0,0,1,.216.058c.227.114.365.055.4,0s-.141-.233-.275-.345a.608.608,0,0,0-.249-.134c.044-.028.032-.073-.054-.176a1.567,1.567,0,0,0-.37-.246c0-.084-.322-.286-.516-.432s-.116-.141-.321-.353a19.991,19.991,0,0,0-1.616-1.3,11.956,11.956,0,0,0-2.857-1.669,2.546,2.546,0,0,0-2.214.015.674.674,0,0,0-.267.913,6.255,6.255,0,0,0,.336.721c.093.184.017.181-.026.21s0,.1-.039.093-.07.047-.125.108a.443.443,0,0,1-.21.079.19.19,0,0,1,.034-.152.619.619,0,0,0-.2-.056c.015-.03.072-.051.072-.051a.735.735,0,0,0-.231.007c.025-.039.047-.046.047-.046a.322.322,0,0,0-.32.123,1.113,1.113,0,0,0-.223-.266c-.086-.081-.13-.2-.222-.286a.254.254,0,0,0,.021-.229.5.5,0,0,0-.286-.227.127.127,0,0,0,.065-.125c-.011-.086-.092-.118-.179-.091a.628.628,0,0,0-.253.086.652.652,0,0,1-.127,0,.637.637,0,0,0-.3-.812,2.545,2.545,0,0,0-2.214-.015,11.965,11.965,0,0,0-2.856,1.669,19.945,19.945,0,0,0-1.615,1.3c-.207.212-.127.2-.32.353s-.521.349-.517.432a1.587,1.587,0,0,0-.371.246c-.086.1-.1.148-.055.176a.614.614,0,0,0-.248.134c-.134.112-.307.291-.275.345s.169.114.4,0a.56.56,0,0,1,.216-.058,1.127,1.127,0,0,0,.34-.09,1.9,1.9,0,0,0,.209-.108c.144.2.5,0,.5,0,.047.023.127,0,.216-.053s.087-.033.23-.062a2.139,2.139,0,0,0,.538-.2.163.163,0,0,1,.037-.019l.058.444-.643-.094c.533.793,1.01.938,1.637.642.582-.274.83-.166.83-.166a5.234,5.234,0,0,1-.57.49c-.144.094-.195.174-.151.411a1.8,1.8,0,0,0,.441.982,1.261,1.261,0,0,0,.836.2c-.029.249-.054.606-.066,1.035l-.485-.368a14.053,14.053,0,0,0,.038,1.958l-.274-.181a11.342,11.342,0,0,0,2.482,7.25,2.606,2.606,0,0,1-.909.578s-2.857-2.351-2.712-8.6l.331.223a11.508,11.508,0,0,1,.061-1.973l-1.5-1.135-.138-.446L573.656,327l1.052,1.283.569.006a12.21,12.21,0,0,0-.195,1.833l-.353-.23-.151-.426-1.578-.6,1.117,1.248.555-.035s-.568,5.531,1.309,8.507c1.565,2.476,3.84,2.5,5.911,1.105a13.548,13.548,0,0,1-1.024,2.273,5.643,5.643,0,0,1,.837.073s-.085.36-.131.468-.037.294.176.3.491.033.491.033-.038.26-.044.4c-.006.185-.024.264.719.295.778-.031.727-.109.719-.295-.005-.139-.041-.4-.041-.4s.278-.027.492-.033.22-.192.175-.3-.133-.468-.133-.468a5.668,5.668,0,0,1,.837-.073,13.824,13.824,0,0,1-1.026-2.273c2.073,1.391,4.35,1.374,5.915-1.105,1.878-2.976,1.308-8.507,1.308-8.507l.556.035Z" transform="translate(0 -0.159)"/><path class="a" d="M620.982,328.4a6.822,6.822,0,0,0-4.617-1.833c-4.006,0-6.327,3-6.3,6.62,0,3.127,1.857,6.156,6.3,6.156a6.111,6.111,0,0,0,4.177-1.514v-3.469h-4.764v-2.443h7.3v7.011a8.605,8.605,0,0,1-6.718,2.98c-6.279,0-8.99-4.178-8.99-8.721,0-4.934,3.151-9.136,8.99-9.136a8.99,8.99,0,0,1,6.326,2.589Z" transform="translate(-2.812 -0.318)"/><path class="a" d="M635.613,339.383c4.269,0,6.059-3.017,6.059-6.3,0-3.164-1.815-6.451-6.01-6.525-3.974,0-6.108,2.771-6.108,6.525C629.6,336.121,631.37,339.383,635.613,339.383Zm8.782-6.353c0,4.636-2.821,8.88-8.782,8.88s-8.781-4.342-8.781-8.855c0-5.225,3.655-9,8.83-9C641.524,324.077,644.394,328.394,644.394,333.03Z" transform="translate(-4.403 -0.318)"/><path class="a" d="M656.749,341.915h-2.963l-7.369-17.8h3.191l5.647,14.409,5.673-14.409h3.165Z" transform="translate(-6.005 -0.323)"/><path class="a" d="M667.367,341.386a1.79,1.79,0,1,1-3.579,0A1.79,1.79,0,0,1,667.367,341.386Z" transform="translate(-7.426 -1.591)"/><path class="a" d="M685.18,339.352a9.025,9.025,0,0,1-6.47,2.558c-6.247,0-9.052-4.3-9.075-8.83s2.926-9.027,9.075-9.027a8.8,8.8,0,0,1,6.3,2.607l-1.845,1.771a6.327,6.327,0,0,0-4.452-1.771,6.036,6.036,0,0,0-6.346,6.4c.025,3.149,1.894,6.272,6.346,6.272a6.673,6.673,0,0,0,4.576-1.869Z" transform="translate(-7.904 -0.318)"/><path class="a" d="M697.838,339.4c4.256,0,6.041-3.008,6.041-6.285,0-3.154-1.81-6.431-5.991-6.5-3.962,0-6.09,2.763-6.09,6.5C691.848,336.144,693.608,339.4,697.838,339.4Zm8.755-6.334c0,4.621-2.812,8.852-8.755,8.852s-8.754-4.328-8.754-8.829c0-5.208,3.643-8.975,8.8-8.975C703.732,324.137,706.593,328.44,706.593,333.063Z" transform="translate(-9.495 -0.323)"/><rect class="b" width="1.922" height="10.714" transform="translate(597.419 320.162)"/><rect class="c" width="1.922" height="7.143" transform="translate(597.419 330.876)"/><rect class="d" width="1.922" height="7.143" transform="translate(597.419 338.019)"/></g></svg>